<svg width="1068" height="176" viewBox="0 0 1068 176" fill="none" xmlns="http://www.w3.org/2000/svg">
<rect width="1068" height="176" fill="white"/>
<path d="M177.804 44.9536C177.804 42.9064 175.819 40.7347 172.377 40.7347C168.511 40.7347 164.27 43.5652 163.613 49.2212C162.951 54.9395 166.511 57.4663 170.088 57.4663C173.664 57.4663 175.547 56.0729 177.458 54.2051C175.808 52.1261 173.679 53.0936 173.276 53.2962C172.831 53.5194 172.246 53.8281 171.059 53.8281C169.673 53.8281 168.268 53.201 168.268 50.6279C177.128 49.7788 177.804 47.002 177.804 44.9536ZM173.413 45.2964C173.355 45.9272 173.097 47.0191 168.613 47.6194C169.559 44.2618 171.362 44.0129 172.195 44.0129C172.976 44.0129 173.474 44.618 173.413 45.2964ZM158.406 45.8417C158.406 45.8417 156.501 51.8175 156.353 52.3189C156.302 51.8175 154.907 41.0837 154.907 41.0837C151.662 41.0837 149.926 43.3895 149.011 45.8393C149.011 45.8393 146.693 51.8321 146.505 52.3336C146.494 51.8638 146.149 45.9016 146.149 45.9016C145.952 42.9051 143.217 41.0909 141 41.0909L143.666 57.3528C147.071 57.3418 148.894 55.0396 149.855 52.5947C149.855 52.5947 151.894 47.307 151.978 47.0667C151.999 47.2961 153.444 57.3528 153.444 57.3528C156.852 57.3528 158.69 55.197 159.68 52.8399L164.461 41.0909C161.094 41.0909 159.321 43.3907 158.406 45.8417ZM190.319 40.7127C188.224 40.7127 186.61 41.851 185.251 43.5334L185.253 43.5212L186.461 33.75C183.672 33.75 181.393 36.1779 180.96 39.7794L178.838 57.2259C180.447 57.2259 182.152 56.7586 183.072 55.5764C183.895 56.6341 185.119 57.4772 186.931 57.4772C191.634 57.4772 194.867 52.0103 194.867 46.8776C194.867 42.1939 192.588 40.7127 190.319 40.7127ZM189.887 49.0944C189.399 51.9639 187.804 53.8988 186.26 53.8988C184.703 53.8988 184.045 53.2108 184.045 53.2108C184.336 50.7024 184.528 49.1639 185.096 47.839C185.662 46.514 187 44.3997 188.401 44.3997C189.762 44.3997 190.375 46.2261 189.887 49.0944ZM206.657 41.0922H203.365L203.38 40.9201C203.605 38.7704 204.12 37.6419 205.786 37.4687C206.925 37.3516 207.439 36.7598 207.559 36.1205C207.653 35.6191 207.971 33.8464 207.971 33.8464C201.366 33.8086 199.296 36.6598 198.767 40.9934L198.755 41.0909L198.691 41.0934C197.618 41.0934 196.441 42.3074 196.235 43.8494L196.163 44.4167H198.359L196.515 59.6782L195.956 62.4208L196.183 62.4281C199.266 62.311 201.25 59.8795 201.688 56.3389L203.128 44.4167H204.16C205.17 44.4167 206.357 43.4042 206.577 41.7119L206.657 41.0922ZM223.745 40.8092C219.951 40.8092 216.375 43.6018 215.275 47.9951C214.177 52.3873 215.847 57.5736 221.423 57.5736C227.002 57.5736 230.206 52.1676 230.206 47.6792C230.206 43.1882 227.171 40.8092 223.745 40.8092ZM225.284 48.9638C225.087 50.9561 224.209 53.966 221.808 53.966C219.397 53.966 219.739 50.434 219.973 48.7577C220.223 46.9605 221.233 44.4167 223.382 44.4167C225.323 44.4167 225.506 46.714 225.284 48.9638ZM248.944 45.8417C248.944 45.8417 247.038 51.8175 246.892 52.3189C246.839 51.8175 245.445 41.0837 245.445 41.0837C242.2 41.0837 240.464 43.3895 239.548 45.8393C239.548 45.8393 237.232 51.8321 237.044 52.3336C237.032 51.8638 236.687 45.9016 236.687 45.9016C236.491 42.9051 233.754 41.0909 231.538 41.0909L234.203 57.3528C237.608 57.3418 239.432 55.0396 240.394 52.5947C240.394 52.5947 242.432 47.307 242.516 47.0667C242.537 47.2961 243.982 57.3528 243.982 57.3528C247.39 57.3528 249.228 55.197 250.217 52.8399L255 41.0909C251.632 41.0909 249.859 43.3907 248.944 45.8417ZM209.756 33.8464L206.992 56.1437L206.984 56.1401L206.423 58.8974L206.649 58.9046C209.626 58.868 211.738 56.256 212.135 52.9618L213.732 40.1637C214.216 36.2657 211.893 33.8464 209.756 33.8464Z" fill="black"/>
<path d="M401.615 57.0475H405.774V49.9184H407.582L411.999 57.0475H416.441L411.56 49.1952C413.729 48.5495 415.357 47.0771 415.357 44.2875V44.1842C415.357 40.3614 412.593 38.5791 408.227 38.5791H401.615V57.0475ZM405.774 47.0771V41.7821H408.124C410.139 41.7821 411.275 42.4278 411.275 44.3134V44.4167C411.275 46.199 410.216 47.0771 408.124 47.0771H405.774Z" fill="black"/>
<path d="M423.579 57.3316C427.273 57.3316 429.598 55.7044 430.037 52.7855H426.498C426.265 53.9221 425.413 54.6712 423.683 54.6712C421.642 54.6712 420.428 53.3797 420.325 51.1325H430.063V50.0993C430.063 45.269 426.963 43.2285 423.476 43.2285C419.55 43.2285 416.528 45.9923 416.528 50.2543V50.4608C416.528 54.7745 419.498 57.3316 423.579 57.3316ZM420.376 48.8336C420.66 46.9222 421.797 45.8115 423.476 45.8115C425.258 45.8115 426.291 46.793 426.421 48.8336H420.376Z" fill="black"/>
<path d="M431.843 57.0475H435.562V37.4168H431.843V57.0475Z" fill="black"/>
<path d="M442.698 57.3316C444.92 57.3316 446.288 56.2984 446.986 54.9295V57.0475H450.705V43.5385H446.986V51.4682C446.986 53.4572 445.746 54.4387 444.171 54.4387C442.57 54.4387 441.82 53.5605 441.82 51.7265V43.5385H438.101V52.2431C438.101 55.7818 440.064 57.3316 442.698 57.3316Z" fill="black"/>
<path d="M453.245 57.0475H456.991V49.0661C456.991 47.2322 458.153 46.3022 459.599 46.3022C460.917 46.3022 461.717 47.0771 461.717 48.8078V57.0475H465.437V49.0661C465.437 47.2322 466.599 46.3022 468.045 46.3022C469.388 46.3022 470.164 47.0771 470.164 48.8078V57.0475H473.883V48.3945C473.883 44.8041 471.946 43.2285 469.44 43.2285C467.736 43.2285 465.979 43.9517 464.894 45.579C464.249 43.9776 462.906 43.2285 461.123 43.2285C459.108 43.2285 457.662 44.3392 456.991 45.6049V43.5385H453.245V57.0475Z" fill="black"/>
<path d="M482.532 57.3316C486.226 57.3316 488.551 55.7044 488.989 52.7855H485.451C485.218 53.9221 484.366 54.6712 482.635 54.6712C480.594 54.6712 479.381 53.3797 479.277 51.1325H489.015V50.0993C489.015 45.269 485.915 43.2285 482.428 43.2285C478.502 43.2285 475.48 45.9923 475.48 50.2543V50.4608C475.48 54.7745 478.451 57.3316 482.532 57.3316ZM479.329 48.8336C479.613 46.9222 480.75 45.8115 482.428 45.8115C484.211 45.8115 485.244 46.793 485.374 48.8336H479.329Z" fill="black"/>
<path fill-rule="evenodd" clip-rule="evenodd" d="M387.303 39.684L387.052 39.2356C386.728 38.6932 386.271 38.2425 385.725 37.9261L373.689 30.9843C373.143 30.6682 372.525 30.5011 371.895 30.5H371.375C370.745 30.5011 370.126 30.6682 369.581 30.9843L357.545 37.9441C357.001 38.2584 356.55 38.7099 356.235 39.2535L355.984 39.7019C355.668 40.2469 355.501 40.8656 355.5 41.4956V55.3972C355.501 56.0273 355.668 56.6459 355.984 57.1909L356.235 57.6393C356.558 58.1766 357.008 58.6263 357.545 58.9488L369.599 65.8905C370.141 66.2132 370.762 66.3808 371.393 66.3748H371.895C372.525 66.3737 373.143 66.2066 373.689 65.8905L385.725 58.9309C386.273 58.6236 386.727 58.1704 387.034 57.6214L387.303 57.173C387.615 56.6264 387.782 56.0087 387.787 55.3792V41.4777C387.786 40.8477 387.619 40.229 387.303 39.684ZM371.375 34.0874H371.895L382.406 40.1503L371.644 46.3566L360.881 40.1503L371.375 34.0874ZM373.437 61.8906L383.931 55.8277L384.2 55.3793V43.2536L373.437 49.4779V61.8906Z" fill="black"/>
<path d="M625.804 44.9536C625.804 42.9064 623.819 40.7347 620.377 40.7347C616.511 40.7347 612.27 43.5652 611.613 49.2212C610.951 54.9395 614.511 57.4663 618.088 57.4663C621.664 57.4663 623.547 56.0729 625.458 54.2051C623.808 52.1261 621.679 53.0936 621.276 53.2962C620.831 53.5194 620.246 53.8281 619.059 53.8281C617.673 53.8281 616.268 53.201 616.268 50.6279C625.128 49.7788 625.804 47.002 625.804 44.9536ZM621.413 45.2964C621.355 45.9272 621.097 47.0191 616.613 47.6194C617.559 44.2618 619.362 44.0129 620.195 44.0129C620.976 44.0129 621.474 44.618 621.413 45.2964ZM606.406 45.8417C606.406 45.8417 604.501 51.8175 604.353 52.3189C604.302 51.8175 602.907 41.0837 602.907 41.0837C599.662 41.0837 597.926 43.3895 597.011 45.8393C597.011 45.8393 594.693 51.8321 594.505 52.3336C594.494 51.8638 594.149 45.9016 594.149 45.9016C593.952 42.9051 591.217 41.0909 589 41.0909L591.666 57.3528C595.071 57.3418 596.894 55.0396 597.855 52.5947C597.855 52.5947 599.894 47.307 599.978 47.0667C599.999 47.2961 601.444 57.3528 601.444 57.3528C604.852 57.3528 606.69 55.197 607.68 52.8399L612.461 41.0909C609.094 41.0909 607.321 43.3907 606.406 45.8417ZM638.319 40.7127C636.224 40.7127 634.61 41.851 633.251 43.5334L633.253 43.5212L634.461 33.75C631.672 33.75 629.393 36.1779 628.96 39.7794L626.838 57.2259C628.447 57.2259 630.152 56.7586 631.072 55.5764C631.895 56.6341 633.119 57.4772 634.931 57.4772C639.634 57.4772 642.867 52.0103 642.867 46.8776C642.867 42.1939 640.588 40.7127 638.319 40.7127ZM637.887 49.0944C637.399 51.9639 635.804 53.8988 634.26 53.8988C632.703 53.8988 632.045 53.2108 632.045 53.2108C632.336 50.7024 632.528 49.1639 633.096 47.839C633.662 46.514 635 44.3997 636.401 44.3997C637.762 44.3997 638.375 46.2261 637.887 49.0944ZM654.657 41.0922H651.365L651.38 40.9201C651.605 38.7704 652.12 37.6419 653.786 37.4687C654.925 37.3516 655.439 36.7598 655.559 36.1205C655.653 35.6191 655.971 33.8464 655.971 33.8464C649.366 33.8086 647.296 36.6598 646.767 40.9934L646.755 41.0909L646.691 41.0934C645.618 41.0934 644.441 42.3074 644.235 43.8494L644.163 44.4167H646.359L644.515 59.6782L643.956 62.4208L644.183 62.4281C647.266 62.311 649.25 59.8795 649.688 56.3389L651.128 44.4167H652.16C653.17 44.4167 654.357 43.4042 654.577 41.7119L654.657 41.0922ZM671.745 40.8092C667.951 40.8092 664.375 43.6018 663.275 47.9951C662.177 52.3873 663.847 57.5736 669.423 57.5736C675.002 57.5736 678.206 52.1676 678.206 47.6792C678.206 43.1882 675.171 40.8092 671.745 40.8092ZM673.284 48.9638C673.087 50.9561 672.209 53.966 669.808 53.966C667.397 53.966 667.739 50.434 667.973 48.7577C668.223 46.9605 669.233 44.4167 671.382 44.4167C673.323 44.4167 673.506 46.714 673.284 48.9638ZM696.944 45.8417C696.944 45.8417 695.038 51.8175 694.892 52.3189C694.839 51.8175 693.445 41.0837 693.445 41.0837C690.2 41.0837 688.464 43.3895 687.548 45.8393C687.548 45.8393 685.232 51.8321 685.044 52.3336C685.032 51.8638 684.687 45.9016 684.687 45.9016C684.491 42.9051 681.754 41.0909 679.538 41.0909L682.203 57.3528C685.608 57.3418 687.432 55.0396 688.394 52.5947C688.394 52.5947 690.432 47.307 690.516 47.0667C690.537 47.2961 691.982 57.3528 691.982 57.3528C695.39 57.3528 697.228 55.197 698.217 52.8399L703 41.0909C699.632 41.0909 697.859 43.3907 696.944 45.8417ZM657.756 33.8464L654.992 56.1437L654.984 56.1401L654.423 58.8974L654.649 58.9046C657.626 58.868 659.738 56.256 660.135 52.9618L661.732 40.1637C662.216 36.2657 659.893 33.8464 657.756 33.8464Z" fill="black"/>
<path d="M849.615 57.0475H853.774V49.9184H855.582L859.999 57.0475H864.441L859.56 49.1952C861.729 48.5495 863.357 47.0771 863.357 44.2875V44.1842C863.357 40.3614 860.593 38.5791 856.227 38.5791H849.615V57.0475ZM853.774 47.0771V41.7821H856.124C858.139 41.7821 859.275 42.4278 859.275 44.3134V44.4167C859.275 46.199 858.216 47.0771 856.124 47.0771H853.774Z" fill="black"/>
<path d="M871.579 57.3316C875.273 57.3316 877.598 55.7044 878.037 52.7855H874.498C874.266 53.9221 873.413 54.6712 871.683 54.6712C869.642 54.6712 868.428 53.3797 868.325 51.1325H878.063V50.0993C878.063 45.269 874.963 43.2285 871.476 43.2285C867.55 43.2285 864.528 45.9923 864.528 50.2543V50.4608C864.528 54.7745 867.498 57.3316 871.579 57.3316ZM868.376 48.8336C868.661 46.9222 869.797 45.8115 871.476 45.8115C873.258 45.8115 874.291 46.793 874.421 48.8336H868.376Z" fill="black"/>
<path d="M879.843 57.0475H883.562V37.4168H879.843V57.0475Z" fill="black"/>
<path d="M890.698 57.3316C892.92 57.3316 894.288 56.2984 894.986 54.9295V57.0475H898.705V43.5385H894.986V51.4682C894.986 53.4572 893.746 54.4387 892.171 54.4387C890.57 54.4387 889.82 53.5605 889.82 51.7265V43.5385H886.101V52.2431C886.101 55.7818 888.064 57.3316 890.698 57.3316Z" fill="black"/>
<path d="M901.245 57.0475H904.99V49.0661C904.99 47.2322 906.152 46.3022 907.599 46.3022C908.917 46.3022 909.717 47.0771 909.717 48.8078V57.0475H913.437V49.0661C913.437 47.2322 914.599 46.3022 916.045 46.3022C917.388 46.3022 918.164 47.0771 918.164 48.8078V57.0475H921.883V48.3945C921.883 44.8041 919.946 43.2285 917.44 43.2285C915.735 43.2285 913.979 43.9517 912.894 45.579C912.249 43.9776 910.905 43.2285 909.123 43.2285C907.108 43.2285 905.662 44.3392 904.99 45.6049V43.5385H901.245V57.0475Z" fill="black"/>
<path d="M930.532 57.3316C934.226 57.3316 936.551 55.7044 936.989 52.7855H933.451C933.218 53.9221 932.366 54.6712 930.635 54.6712C928.594 54.6712 927.381 53.3797 927.277 51.1325H937.015V50.0993C937.015 45.269 933.915 43.2285 930.428 43.2285C926.502 43.2285 923.48 45.9923 923.48 50.2543V50.4608C923.48 54.7745 926.451 57.3316 930.532 57.3316ZM927.329 48.8336C927.613 46.9222 928.75 45.8115 930.428 45.8115C932.211 45.8115 933.244 46.793 933.374 48.8336H927.329Z" fill="black"/>
<path fill-rule="evenodd" clip-rule="evenodd" d="M835.303 39.684L835.052 39.2356C834.728 38.6932 834.271 38.2425 833.725 37.9261L821.689 30.9843C821.143 30.6682 820.525 30.5011 819.895 30.5H819.375C818.745 30.5011 818.126 30.6682 817.581 30.9843L805.545 37.9441C805.001 38.2584 804.55 38.7099 804.235 39.2535L803.984 39.7019C803.668 40.2469 803.501 40.8656 803.5 41.4956V55.3972C803.501 56.0273 803.668 56.6459 803.984 57.1909L804.235 57.6393C804.558 58.1766 805.008 58.6263 805.545 58.9488L817.599 65.8905C818.141 66.2132 818.762 66.3808 819.393 66.3748H819.895C820.525 66.3737 821.143 66.2066 821.689 65.8905L833.725 58.9309C834.273 58.6236 834.727 58.1704 835.034 57.6214L835.303 57.173C835.615 56.6264 835.782 56.0087 835.787 55.3792V41.4777C835.786 40.8477 835.619 40.229 835.303 39.684ZM819.375 34.0874H819.895L830.406 40.1503L819.644 46.3566L808.881 40.1503L819.375 34.0874ZM821.437 61.8906L831.931 55.8277L832.2 55.3793V43.2536L821.437 49.4779V61.8906Z" fill="black"/>
<path d="M289.804 124.954C289.804 122.906 287.819 120.735 284.377 120.735C280.511 120.735 276.27 123.565 275.613 129.221C274.951 134.94 278.511 137.466 282.088 137.466C285.664 137.466 287.547 136.073 289.458 134.205C287.808 132.126 285.679 133.094 285.276 133.296C284.831 133.519 284.246 133.828 283.059 133.828C281.673 133.828 280.268 133.201 280.268 130.628C289.128 129.779 289.804 127.002 289.804 124.954ZM285.413 125.296C285.355 125.927 285.097 127.019 280.613 127.619C281.559 124.262 283.362 124.013 284.195 124.013C284.976 124.013 285.474 124.618 285.413 125.296ZM270.406 125.842C270.406 125.842 268.501 131.817 268.353 132.319C268.302 131.817 266.907 121.084 266.907 121.084C263.662 121.084 261.926 123.39 261.011 125.839C261.011 125.839 258.693 131.832 258.505 132.334C258.494 131.864 258.149 125.902 258.149 125.902C257.952 122.905 255.217 121.091 253 121.091L255.666 137.353C259.071 137.342 260.894 135.04 261.855 132.595C261.855 132.595 263.894 127.307 263.978 127.067C263.999 127.296 265.444 137.353 265.444 137.353C268.852 137.353 270.69 135.197 271.68 132.84L276.461 121.091C273.094 121.091 271.321 123.391 270.406 125.842ZM302.319 120.713C300.224 120.713 298.61 121.851 297.251 123.533L297.253 123.521L298.461 113.75C295.672 113.75 293.393 116.178 292.96 119.779L290.838 137.226C292.447 137.226 294.152 136.759 295.072 135.576C295.895 136.634 297.119 137.477 298.931 137.477C303.634 137.477 306.867 132.01 306.867 126.878C306.867 122.194 304.588 120.713 302.319 120.713ZM301.887 129.094C301.399 131.964 299.804 133.899 298.26 133.899C296.703 133.899 296.045 133.211 296.045 133.211C296.336 130.702 296.528 129.164 297.096 127.839C297.662 126.514 299 124.4 300.401 124.4C301.762 124.4 302.375 126.226 301.887 129.094ZM318.657 121.092H315.365L315.38 120.92C315.605 118.77 316.12 117.642 317.786 117.469C318.925 117.352 319.439 116.76 319.559 116.121C319.653 115.619 319.971 113.846 319.971 113.846C313.366 113.809 311.296 116.66 310.767 120.993L310.755 121.091L310.691 121.093C309.618 121.093 308.441 122.307 308.235 123.849L308.163 124.417H310.359L308.515 139.678L307.956 142.421L308.183 142.428C311.266 142.311 313.25 139.879 313.688 136.339L315.128 124.417H316.16C317.17 124.417 318.357 123.404 318.577 121.712L318.657 121.092ZM335.745 120.809C331.951 120.809 328.375 123.602 327.275 127.995C326.177 132.387 327.847 137.574 333.423 137.574C339.002 137.574 342.206 132.168 342.206 127.679C342.206 123.188 339.171 120.809 335.745 120.809ZM337.284 128.964C337.087 130.956 336.209 133.966 333.808 133.966C331.397 133.966 331.739 130.434 331.973 128.758C332.223 126.961 333.233 124.417 335.382 124.417C337.323 124.417 337.506 126.714 337.284 128.964ZM360.944 125.842C360.944 125.842 359.038 131.817 358.892 132.319C358.839 131.817 357.445 121.084 357.445 121.084C354.2 121.084 352.464 123.39 351.548 125.839C351.548 125.839 349.232 131.832 349.044 132.334C349.032 131.864 348.687 125.902 348.687 125.902C348.491 122.905 345.754 121.091 343.538 121.091L346.203 137.353C349.608 137.342 351.432 135.04 352.394 132.595C352.394 132.595 354.432 127.307 354.516 127.067C354.537 127.296 355.982 137.353 355.982 137.353C359.39 137.353 361.228 135.197 362.217 132.84L367 121.091C363.632 121.091 361.859 123.391 360.944 125.842ZM321.756 113.846L318.992 136.144L318.984 136.14L318.423 138.897L318.649 138.905C321.626 138.868 323.738 136.256 324.135 132.962L325.732 120.164C326.216 116.266 323.893 113.846 321.756 113.846Z" fill="black"/>
<path d="M513.615 137.047H517.774V129.918H519.582L523.999 137.047H528.441L523.56 129.195C525.729 128.549 527.357 127.077 527.357 124.288V124.184C527.357 120.361 524.593 118.579 520.227 118.579H513.615V137.047ZM517.774 127.077V121.782H520.124C522.139 121.782 523.275 122.428 523.275 124.313V124.417C523.275 126.199 522.216 127.077 520.124 127.077H517.774Z" fill="black"/>
<path d="M535.579 137.332C539.273 137.332 541.598 135.704 542.037 132.786H538.498C538.265 133.922 537.413 134.671 535.683 134.671C533.642 134.671 532.428 133.38 532.325 131.133H542.063V130.099C542.063 125.269 538.963 123.229 535.476 123.229C531.55 123.229 528.528 125.992 528.528 130.254V130.461C528.528 134.775 531.498 137.332 535.579 137.332ZM532.376 128.834C532.66 126.922 533.797 125.812 535.476 125.812C537.258 125.812 538.291 126.793 538.421 128.834H532.376Z" fill="black"/>
<path d="M543.843 137.048H547.562V117.417H543.843V137.048Z" fill="black"/>
<path d="M554.698 137.332C556.92 137.332 558.288 136.298 558.986 134.929V137.048H562.705V123.538H558.986V131.468C558.986 133.457 557.746 134.439 556.171 134.439C554.57 134.439 553.82 133.56 553.82 131.727V123.538H550.101V132.243C550.101 135.782 552.064 137.332 554.698 137.332Z" fill="black"/>
<path d="M565.245 137.048H568.991V129.066C568.991 127.232 570.153 126.302 571.599 126.302C572.917 126.302 573.717 127.077 573.717 128.808V137.048H577.437V129.066C577.437 127.232 578.599 126.302 580.045 126.302C581.388 126.302 582.164 127.077 582.164 128.808V137.048H585.883V128.395C585.883 124.804 583.946 123.229 581.44 123.229C579.736 123.229 577.979 123.952 576.894 125.579C576.249 123.978 574.906 123.229 573.123 123.229C571.108 123.229 569.662 124.339 568.991 125.605V123.538H565.245V137.048Z" fill="black"/>
<path d="M594.532 137.332C598.226 137.332 600.551 135.704 600.989 132.786H597.451C597.218 133.922 596.366 134.671 594.635 134.671C592.594 134.671 591.381 133.38 591.277 131.133H601.015V130.099C601.015 125.269 597.915 123.229 594.428 123.229C590.502 123.229 587.48 125.992 587.48 130.254V130.461C587.48 134.775 590.451 137.332 594.532 137.332ZM591.329 128.834C591.613 126.922 592.75 125.812 594.428 125.812C596.211 125.812 597.244 126.793 597.374 128.834H591.329Z" fill="black"/>
<path fill-rule="evenodd" clip-rule="evenodd" d="M499.303 119.684L499.052 119.236C498.728 118.693 498.271 118.243 497.725 117.926L485.689 110.984C485.143 110.668 484.525 110.501 483.895 110.5H483.375C482.745 110.501 482.126 110.668 481.581 110.984L469.545 117.944C469.001 118.258 468.55 118.71 468.235 119.253L467.984 119.702C467.668 120.247 467.501 120.866 467.5 121.496V135.397C467.501 136.027 467.668 136.646 467.984 137.191L468.235 137.639C468.558 138.177 469.008 138.626 469.545 138.949L481.599 145.891C482.141 146.213 482.762 146.381 483.393 146.375H483.895C484.525 146.374 485.143 146.207 485.689 145.891L497.725 138.931C498.273 138.624 498.727 138.17 499.034 137.621L499.303 137.173C499.615 136.626 499.782 136.009 499.787 135.379V121.478C499.786 120.848 499.619 120.229 499.303 119.684ZM483.375 114.087H483.895L494.406 120.15L483.644 126.357L472.881 120.15L483.375 114.087ZM485.437 141.891L495.931 135.828L496.2 135.379V123.254L485.437 129.478V141.891Z" fill="black"/>
<path d="M737.804 124.954C737.804 122.906 735.819 120.735 732.377 120.735C728.511 120.735 724.27 123.565 723.613 129.221C722.951 134.94 726.511 137.466 730.088 137.466C733.664 137.466 735.547 136.073 737.458 134.205C735.808 132.126 733.679 133.094 733.276 133.296C732.831 133.519 732.246 133.828 731.059 133.828C729.673 133.828 728.268 133.201 728.268 130.628C737.128 129.779 737.804 127.002 737.804 124.954ZM733.413 125.296C733.355 125.927 733.097 127.019 728.613 127.619C729.559 124.262 731.362 124.013 732.195 124.013C732.976 124.013 733.474 124.618 733.413 125.296ZM718.406 125.842C718.406 125.842 716.501 131.817 716.353 132.319C716.302 131.817 714.907 121.084 714.907 121.084C711.662 121.084 709.926 123.39 709.011 125.839C709.011 125.839 706.693 131.832 706.505 132.334C706.494 131.864 706.149 125.902 706.149 125.902C705.952 122.905 703.217 121.091 701 121.091L703.666 137.353C707.071 137.342 708.894 135.04 709.855 132.595C709.855 132.595 711.894 127.307 711.978 127.067C711.999 127.296 713.444 137.353 713.444 137.353C716.852 137.353 718.69 135.197 719.68 132.84L724.461 121.091C721.094 121.091 719.321 123.391 718.406 125.842ZM750.319 120.713C748.224 120.713 746.61 121.851 745.251 123.533L745.253 123.521L746.461 113.75C743.672 113.75 741.393 116.178 740.96 119.779L738.838 137.226C740.447 137.226 742.152 136.759 743.072 135.576C743.895 136.634 745.119 137.477 746.931 137.477C751.634 137.477 754.867 132.01 754.867 126.878C754.867 122.194 752.588 120.713 750.319 120.713ZM749.887 129.094C749.399 131.964 747.804 133.899 746.26 133.899C744.703 133.899 744.045 133.211 744.045 133.211C744.336 130.702 744.528 129.164 745.096 127.839C745.662 126.514 747 124.4 748.401 124.4C749.762 124.4 750.375 126.226 749.887 129.094ZM766.657 121.092H763.365L763.38 120.92C763.605 118.77 764.12 117.642 765.786 117.469C766.925 117.352 767.439 116.76 767.559 116.121C767.653 115.619 767.971 113.846 767.971 113.846C761.366 113.809 759.296 116.66 758.767 120.993L758.755 121.091L758.691 121.093C757.618 121.093 756.441 122.307 756.235 123.849L756.163 124.417H758.359L756.515 139.678L755.956 142.421L756.183 142.428C759.266 142.311 761.25 139.879 761.688 136.339L763.128 124.417H764.16C765.17 124.417 766.357 123.404 766.577 121.712L766.657 121.092ZM783.745 120.809C779.951 120.809 776.375 123.602 775.275 127.995C774.177 132.387 775.847 137.574 781.423 137.574C787.002 137.574 790.206 132.168 790.206 127.679C790.206 123.188 787.171 120.809 783.745 120.809ZM785.284 128.964C785.087 130.956 784.209 133.966 781.808 133.966C779.397 133.966 779.739 130.434 779.973 128.758C780.223 126.961 781.233 124.417 783.382 124.417C785.323 124.417 785.506 126.714 785.284 128.964ZM808.944 125.842C808.944 125.842 807.038 131.817 806.892 132.319C806.839 131.817 805.445 121.084 805.445 121.084C802.2 121.084 800.464 123.39 799.548 125.839C799.548 125.839 797.232 131.832 797.044 132.334C797.032 131.864 796.687 125.902 796.687 125.902C796.491 122.905 793.754 121.091 791.538 121.091L794.203 137.353C797.608 137.342 799.432 135.04 800.394 132.595C800.394 132.595 802.432 127.307 802.516 127.067C802.537 127.296 803.982 137.353 803.982 137.353C807.39 137.353 809.228 135.197 810.217 132.84L815 121.091C811.632 121.091 809.859 123.391 808.944 125.842ZM769.756 113.846L766.992 136.144L766.984 136.14L766.423 138.897L766.649 138.905C769.626 138.868 771.738 136.256 772.135 132.962L773.732 120.164C774.216 116.266 771.893 113.846 769.756 113.846Z" fill="black"/>
</svg>
