<svg width="665" height="640" viewBox="0 0 665 640" fill="none" xmlns="http://www.w3.org/2000/svg">
<rect width="665" height="640" fill="#DBDBDB"/>
<rect width="665" height="640" fill="black" fill-opacity="0.5"/>
<path fill-rule="evenodd" clip-rule="evenodd" d="M281.8 268.8H384.2C391.269 268.8 397 274.531 397 281.6V358.4C397 365.469 391.269 371.2 384.2 371.2H281.8C274.731 371.2 269 365.469 269 358.4V281.6C269 274.531 274.731 268.8 281.8 268.8ZM327.688 340.608L352.584 323.968C353.925 323.094 354.734 321.601 354.734 320C354.734 318.399 353.925 316.906 352.584 316.032L327.688 299.392C326.218 298.399 324.32 298.297 322.752 299.128C321.185 299.958 320.203 301.586 320.2 303.36V336.64C320.203 338.414 321.185 340.042 322.752 340.872C324.32 341.703 326.218 341.601 327.688 340.608Z" fill="black" fill-opacity="0.15"/>
<path fill-rule="evenodd" clip-rule="evenodd" d="M306.333 320C306.333 305.272 318.272 293.333 333 293.333C340.072 293.333 346.855 296.143 351.856 301.144C356.857 306.145 359.666 312.928 359.666 320C359.666 334.728 347.727 346.667 333 346.667C318.272 346.667 306.333 334.728 306.333 320ZM328.12 331.413L343.666 321.707C344.248 321.334 344.6 320.691 344.6 320C344.6 319.309 344.248 318.666 343.666 318.293L328.066 308.587C327.452 308.199 326.676 308.176 326.039 308.524C325.402 308.873 325.004 309.54 325 310.267V329.733C324.991 330.477 325.396 331.165 326.051 331.517C326.706 331.87 327.503 331.83 328.12 331.413Z" fill="white"/>
</svg>
