<svg width="1440" height="128" viewBox="0 0 1440 128" fill="none" xmlns="http://www.w3.org/2000/svg">
<path d="M139.804 24.9536C139.804 22.9064 137.819 20.7347 134.377 20.7347C130.511 20.7347 126.27 23.5652 125.613 29.2212C124.951 34.9395 128.511 37.4663 132.088 37.4663C135.664 37.4663 137.547 36.0729 139.458 34.2051C137.808 32.1261 135.679 33.0936 135.276 33.2962C134.831 33.5194 134.246 33.8281 133.059 33.8281C131.673 33.8281 130.268 33.201 130.268 30.6279C139.128 29.7788 139.804 27.002 139.804 24.9536ZM135.413 25.2964C135.355 25.9272 135.097 27.0191 130.613 27.6194C131.559 24.2618 133.362 24.0129 134.195 24.0129C134.976 24.0129 135.474 24.618 135.413 25.2964ZM120.406 25.8417C120.406 25.8417 118.501 31.8175 118.353 32.3189C118.302 31.8175 116.907 21.0837 116.907 21.0837C113.662 21.0837 111.926 23.3895 111.011 25.8393C111.011 25.8393 108.693 31.8321 108.505 32.3336C108.494 31.8638 108.149 25.9016 108.149 25.9016C107.952 22.9051 105.217 21.0909 103 21.0909L105.666 37.3528C109.071 37.3418 110.894 35.0396 111.855 32.5947C111.855 32.5947 113.894 27.307 113.978 27.0667C113.999 27.2961 115.444 37.3528 115.444 37.3528C118.852 37.3528 120.69 35.197 121.68 32.8399L126.461 21.0909C123.094 21.0909 121.321 23.3907 120.406 25.8417ZM152.319 20.7127C150.224 20.7127 148.61 21.851 147.251 23.5334L147.253 23.5212L148.461 13.75C145.672 13.75 143.393 16.1779 142.96 19.7794L140.838 37.2259C142.447 37.2259 144.152 36.7586 145.072 35.5764C145.895 36.6341 147.119 37.4772 148.931 37.4772C153.634 37.4772 156.867 32.0103 156.867 26.8776C156.867 22.1939 154.588 20.7127 152.319 20.7127ZM151.887 29.0944C151.399 31.9639 149.804 33.8988 148.26 33.8988C146.703 33.8988 146.045 33.2108 146.045 33.2108C146.336 30.7024 146.528 29.1639 147.096 27.839C147.662 26.514 149 24.3997 150.401 24.3997C151.762 24.3997 152.375 26.2261 151.887 29.0944ZM168.657 21.0922H165.365L165.38 20.9201C165.605 18.7704 166.12 17.6419 167.786 17.4687C168.925 17.3516 169.439 16.7598 169.559 16.1205C169.653 15.6191 169.971 13.8464 169.971 13.8464C163.366 13.8086 161.296 16.6598 160.767 20.9934L160.755 21.0909L160.691 21.0934C159.618 21.0934 158.441 22.3074 158.235 23.8494L158.163 24.4167H160.359L158.515 39.6782L157.956 42.4208L158.183 42.4281C161.266 42.311 163.25 39.8795 163.688 36.3389L165.128 24.4167H166.16C167.17 24.4167 168.357 23.4042 168.577 21.7119L168.657 21.0922ZM185.745 20.8092C181.951 20.8092 178.375 23.6018 177.275 27.9951C176.177 32.3873 177.847 37.5736 183.423 37.5736C189.002 37.5736 192.206 32.1676 192.206 27.6792C192.206 23.1882 189.171 20.8092 185.745 20.8092ZM187.284 28.9638C187.087 30.9561 186.209 33.966 183.808 33.966C181.397 33.966 181.739 30.434 181.973 28.7577C182.223 26.9605 183.233 24.4167 185.382 24.4167C187.323 24.4167 187.506 26.714 187.284 28.9638ZM210.944 25.8417C210.944 25.8417 209.038 31.8175 208.892 32.3189C208.839 31.8175 207.445 21.0837 207.445 21.0837C204.2 21.0837 202.464 23.3895 201.548 25.8393C201.548 25.8393 199.232 31.8321 199.044 32.3336C199.032 31.8638 198.687 25.9016 198.687 25.9016C198.491 22.9051 195.754 21.0909 193.538 21.0909L196.203 37.3528C199.608 37.3418 201.432 35.0396 202.394 32.5947C202.394 32.5947 204.432 27.307 204.516 27.0667C204.537 27.2961 205.982 37.3528 205.982 37.3528C209.39 37.3528 211.228 35.197 212.217 32.8399L217 21.0909C213.632 21.0909 211.859 23.3907 210.944 25.8417ZM171.756 13.8464L168.992 36.1437L168.984 36.1401L168.423 38.8974L168.649 38.9046C171.626 38.868 173.738 36.256 174.135 32.9618L175.732 20.1637C176.216 16.2657 173.893 13.8464 171.756 13.8464Z" fill="black"/>
<path d="M363.615 37.0475H367.774V29.9184H369.582L373.999 37.0475H378.441L373.559 29.1952C375.729 28.5495 377.356 27.0771 377.356 24.2875V24.1842C377.356 20.3614 374.593 18.5791 370.227 18.5791H363.615V37.0475ZM367.774 27.0771V21.782H370.124C372.139 21.782 373.275 22.4278 373.275 24.3133V24.4167C373.275 26.199 372.216 27.0771 370.124 27.0771H367.774Z" fill="black"/>
<path d="M385.579 37.3316C389.273 37.3316 391.598 35.7044 392.037 32.7855H388.498C388.266 33.9221 387.413 34.6712 385.683 34.6712C383.642 34.6712 382.428 33.3797 382.325 31.1325H392.063V30.0993C392.063 25.269 388.963 23.2285 385.476 23.2285C381.55 23.2285 378.528 25.9923 378.528 30.2542V30.4608C378.528 34.7745 381.498 37.3316 385.579 37.3316ZM382.376 28.8336C382.66 26.9222 383.797 25.8115 385.476 25.8115C387.258 25.8115 388.291 26.793 388.421 28.8336H382.376Z" fill="black"/>
<path d="M393.843 37.0475H397.562V17.4167H393.843V37.0475Z" fill="black"/>
<path d="M404.698 37.3316C406.92 37.3316 408.288 36.2984 408.986 34.9295V37.0475H412.705V23.5385H408.986V31.4682C408.986 33.4572 407.746 34.4387 406.171 34.4387C404.569 34.4387 403.82 33.5604 403.82 31.7265V23.5385H400.101V32.2431C400.101 35.7818 402.064 37.3316 404.698 37.3316Z" fill="black"/>
<path d="M415.245 37.0475H418.99V29.0661C418.99 27.2322 420.152 26.3022 421.599 26.3022C422.917 26.3022 423.717 27.0771 423.717 28.8078V37.0475H427.437V29.0661C427.437 27.2322 428.599 26.3022 430.045 26.3022C431.388 26.3022 432.164 27.0771 432.164 28.8078V37.0475H435.883V28.3945C435.883 24.8041 433.946 23.2285 431.44 23.2285C429.735 23.2285 427.979 23.9517 426.894 25.579C426.249 23.9776 424.905 23.2285 423.123 23.2285C421.108 23.2285 419.662 24.3392 418.99 25.6048V23.5384H415.245V37.0475Z" fill="black"/>
<path d="M444.532 37.3316C448.226 37.3316 450.551 35.7044 450.989 32.7855H447.451C447.218 33.9221 446.366 34.6712 444.635 34.6712C442.594 34.6712 441.381 33.3797 441.277 31.1325H451.015V30.0993C451.015 25.269 447.915 23.2285 444.428 23.2285C440.502 23.2285 437.48 25.9923 437.48 30.2542V30.4608C437.48 34.7745 440.451 37.3316 444.532 37.3316ZM441.329 28.8336C441.613 26.9222 442.75 25.8115 444.428 25.8115C446.211 25.8115 447.244 26.793 447.374 28.8336H441.329Z" fill="black"/>
<path fill-rule="evenodd" clip-rule="evenodd" d="M349.303 19.684L349.052 19.2356C348.728 18.6932 348.271 18.2425 347.725 17.9261L335.689 10.9843C335.143 10.6682 334.525 10.5011 333.895 10.5H333.375C332.745 10.5011 332.126 10.6682 331.581 10.9843L319.545 17.9441C319.001 18.2584 318.55 18.7099 318.235 19.2535L317.984 19.7019C317.668 20.2469 317.501 20.8656 317.5 21.4956V35.3972C317.501 36.0273 317.668 36.6459 317.984 37.1909L318.235 37.6393C318.558 38.1766 319.008 38.6263 319.545 38.9488L331.599 45.8905C332.141 46.2132 332.762 46.3808 333.393 46.3748H333.895C334.525 46.3737 335.143 46.2066 335.689 45.8905L347.725 38.9309C348.273 38.6236 348.727 38.1704 349.034 37.6214L349.303 37.173C349.615 36.6264 349.782 36.0087 349.787 35.3792V21.4777C349.786 20.8477 349.619 20.229 349.303 19.684ZM333.375 14.0874H333.895L344.406 20.1503L333.644 26.3566L322.881 20.1503L333.375 14.0874ZM335.437 41.8906L345.931 35.8277L346.2 35.3793V23.2536L335.437 29.4779V41.8906Z" fill="black"/>
<path d="M587.804 24.9536C587.804 22.9064 585.819 20.7347 582.377 20.7347C578.511 20.7347 574.27 23.5652 573.613 29.2212C572.951 34.9395 576.511 37.4663 580.088 37.4663C583.664 37.4663 585.547 36.0729 587.458 34.2051C585.808 32.1261 583.679 33.0936 583.276 33.2962C582.831 33.5194 582.246 33.8281 581.059 33.8281C579.673 33.8281 578.268 33.201 578.268 30.6279C587.128 29.7788 587.804 27.002 587.804 24.9536ZM583.413 25.2964C583.355 25.9272 583.097 27.0191 578.613 27.6194C579.559 24.2618 581.362 24.0129 582.195 24.0129C582.976 24.0129 583.474 24.618 583.413 25.2964ZM568.406 25.8417C568.406 25.8417 566.501 31.8175 566.353 32.3189C566.302 31.8175 564.907 21.0837 564.907 21.0837C561.662 21.0837 559.926 23.3895 559.011 25.8393C559.011 25.8393 556.693 31.8321 556.505 32.3336C556.494 31.8638 556.149 25.9016 556.149 25.9016C555.952 22.9051 553.217 21.0909 551 21.0909L553.666 37.3528C557.071 37.3418 558.894 35.0396 559.855 32.5947C559.855 32.5947 561.894 27.307 561.978 27.0667C561.999 27.2961 563.444 37.3528 563.444 37.3528C566.852 37.3528 568.69 35.197 569.68 32.8399L574.461 21.0909C571.094 21.0909 569.321 23.3907 568.406 25.8417ZM600.319 20.7127C598.224 20.7127 596.61 21.851 595.251 23.5334L595.253 23.5212L596.461 13.75C593.672 13.75 591.393 16.1779 590.96 19.7794L588.838 37.2259C590.447 37.2259 592.152 36.7586 593.072 35.5764C593.895 36.6341 595.119 37.4772 596.931 37.4772C601.634 37.4772 604.867 32.0103 604.867 26.8776C604.867 22.1939 602.588 20.7127 600.319 20.7127ZM599.887 29.0944C599.399 31.9639 597.804 33.8988 596.26 33.8988C594.703 33.8988 594.045 33.2108 594.045 33.2108C594.336 30.7024 594.528 29.1639 595.096 27.839C595.662 26.514 597 24.3997 598.401 24.3997C599.762 24.3997 600.375 26.2261 599.887 29.0944ZM616.657 21.0922H613.365L613.38 20.9201C613.605 18.7704 614.12 17.6419 615.786 17.4687C616.925 17.3516 617.439 16.7598 617.559 16.1205C617.653 15.6191 617.971 13.8464 617.971 13.8464C611.366 13.8086 609.296 16.6598 608.767 20.9934L608.755 21.0909L608.691 21.0934C607.618 21.0934 606.441 22.3074 606.235 23.8494L606.163 24.4167H608.359L606.515 39.6782L605.956 42.4208L606.183 42.4281C609.266 42.311 611.25 39.8795 611.688 36.3389L613.128 24.4167H614.16C615.17 24.4167 616.357 23.4042 616.577 21.7119L616.657 21.0922ZM633.745 20.8092C629.951 20.8092 626.375 23.6018 625.275 27.9951C624.177 32.3873 625.847 37.5736 631.423 37.5736C637.002 37.5736 640.206 32.1676 640.206 27.6792C640.206 23.1882 637.171 20.8092 633.745 20.8092ZM635.284 28.9638C635.087 30.9561 634.209 33.966 631.808 33.966C629.397 33.966 629.739 30.434 629.973 28.7577C630.223 26.9605 631.233 24.4167 633.382 24.4167C635.323 24.4167 635.506 26.714 635.284 28.9638ZM658.944 25.8417C658.944 25.8417 657.038 31.8175 656.892 32.3189C656.839 31.8175 655.445 21.0837 655.445 21.0837C652.2 21.0837 650.464 23.3895 649.548 25.8393C649.548 25.8393 647.232 31.8321 647.044 32.3336C647.032 31.8638 646.687 25.9016 646.687 25.9016C646.491 22.9051 643.754 21.0909 641.538 21.0909L644.203 37.3528C647.608 37.3418 649.432 35.0396 650.394 32.5947C650.394 32.5947 652.432 27.307 652.516 27.0667C652.537 27.2961 653.982 37.3528 653.982 37.3528C657.39 37.3528 659.228 35.197 660.217 32.8399L665 21.0909C661.632 21.0909 659.859 23.3907 658.944 25.8417ZM619.756 13.8464L616.992 36.1437L616.984 36.1401L616.423 38.8974L616.649 38.9046C619.626 38.868 621.738 36.256 622.135 32.9618L623.732 20.1637C624.216 16.2657 621.893 13.8464 619.756 13.8464Z" fill="black"/>
<path d="M811.615 37.0475H815.774V29.9184H817.582L821.999 37.0475H826.441L821.559 29.1952C823.729 28.5495 825.356 27.0771 825.356 24.2875V24.1842C825.356 20.3614 822.593 18.5791 818.227 18.5791H811.615V37.0475ZM815.774 27.0771V21.782H818.124C820.139 21.782 821.275 22.4278 821.275 24.3133V24.4167C821.275 26.199 820.216 27.0771 818.124 27.0771H815.774Z" fill="black"/>
<path d="M833.579 37.3316C837.273 37.3316 839.598 35.7044 840.037 32.7855H836.498C836.266 33.9221 835.413 34.6712 833.683 34.6712C831.642 34.6712 830.428 33.3797 830.325 31.1325H840.063V30.0993C840.063 25.269 836.963 23.2285 833.476 23.2285C829.55 23.2285 826.528 25.9923 826.528 30.2542V30.4608C826.528 34.7745 829.498 37.3316 833.579 37.3316ZM830.376 28.8336C830.66 26.9222 831.797 25.8115 833.476 25.8115C835.258 25.8115 836.291 26.793 836.421 28.8336H830.376Z" fill="black"/>
<path d="M841.843 37.0475H845.562V17.4167H841.843V37.0475Z" fill="black"/>
<path d="M852.698 37.3316C854.92 37.3316 856.288 36.2984 856.986 34.9295V37.0475H860.705V23.5385H856.986V31.4682C856.986 33.4572 855.746 34.4387 854.171 34.4387C852.569 34.4387 851.82 33.5604 851.82 31.7265V23.5385H848.101V32.2431C848.101 35.7818 850.064 37.3316 852.698 37.3316Z" fill="black"/>
<path d="M863.245 37.0475H866.99V29.0661C866.99 27.2322 868.152 26.3022 869.599 26.3022C870.917 26.3022 871.717 27.0771 871.717 28.8078V37.0475H875.437V29.0661C875.437 27.2322 876.599 26.3022 878.045 26.3022C879.388 26.3022 880.164 27.0771 880.164 28.8078V37.0475H883.883V28.3945C883.883 24.8041 881.946 23.2285 879.44 23.2285C877.735 23.2285 875.979 23.9517 874.894 25.579C874.249 23.9776 872.905 23.2285 871.123 23.2285C869.108 23.2285 867.662 24.3392 866.99 25.6048V23.5384H863.245V37.0475Z" fill="black"/>
<path d="M892.532 37.3316C896.226 37.3316 898.551 35.7044 898.989 32.7855H895.451C895.218 33.9221 894.366 34.6712 892.635 34.6712C890.594 34.6712 889.381 33.3797 889.277 31.1325H899.015V30.0993C899.015 25.269 895.915 23.2285 892.428 23.2285C888.502 23.2285 885.48 25.9923 885.48 30.2542V30.4608C885.48 34.7745 888.451 37.3316 892.532 37.3316ZM889.329 28.8336C889.613 26.9222 890.75 25.8115 892.428 25.8115C894.211 25.8115 895.244 26.793 895.374 28.8336H889.329Z" fill="black"/>
<path fill-rule="evenodd" clip-rule="evenodd" d="M797.303 19.684L797.052 19.2356C796.728 18.6932 796.271 18.2425 795.725 17.9261L783.689 10.9843C783.143 10.6682 782.525 10.5011 781.895 10.5H781.375C780.745 10.5011 780.126 10.6682 779.581 10.9843L767.545 17.9441C767.001 18.2584 766.55 18.7099 766.235 19.2535L765.984 19.7019C765.668 20.2469 765.501 20.8656 765.5 21.4956V35.3972C765.501 36.0273 765.668 36.6459 765.984 37.1909L766.235 37.6393C766.558 38.1766 767.008 38.6263 767.545 38.9488L779.599 45.8905C780.141 46.2132 780.762 46.3808 781.393 46.3748H781.895C782.525 46.3737 783.143 46.2066 783.689 45.8905L795.725 38.9309C796.273 38.6236 796.727 38.1704 797.034 37.6214L797.303 37.173C797.615 36.6264 797.782 36.0087 797.787 35.3792V21.4777C797.786 20.8477 797.619 20.229 797.303 19.684ZM781.375 14.0874H781.895L792.406 20.1503L781.644 26.3566L770.881 20.1503L781.375 14.0874ZM783.437 41.8906L793.931 35.8277L794.2 35.3793V23.2536L783.437 29.4779V41.8906Z" fill="black"/>
<path d="M1035.8 24.9536C1035.8 22.9064 1033.82 20.7347 1030.38 20.7347C1026.51 20.7347 1022.27 23.5652 1021.61 29.2212C1020.95 34.9395 1024.51 37.4663 1028.09 37.4663C1031.66 37.4663 1033.55 36.0729 1035.46 34.2051C1033.81 32.1261 1031.68 33.0936 1031.28 33.2962C1030.83 33.5194 1030.25 33.8281 1029.06 33.8281C1027.67 33.8281 1026.27 33.201 1026.27 30.6279C1035.13 29.7788 1035.8 27.002 1035.8 24.9536ZM1031.41 25.2964C1031.36 25.9272 1031.1 27.0191 1026.61 27.6194C1027.56 24.2618 1029.36 24.0129 1030.2 24.0129C1030.98 24.0129 1031.47 24.618 1031.41 25.2964ZM1016.41 25.8417C1016.41 25.8417 1014.5 31.8175 1014.35 32.3189C1014.3 31.8175 1012.91 21.0837 1012.91 21.0837C1009.66 21.0837 1007.93 23.3895 1007.01 25.8393C1007.01 25.8393 1004.69 31.8321 1004.5 32.3336C1004.49 31.8638 1004.15 25.9016 1004.15 25.9016C1003.95 22.9051 1001.22 21.0909 999 21.0909L1001.67 37.3528C1005.07 37.3418 1006.89 35.0396 1007.86 32.5947C1007.86 32.5947 1009.89 27.307 1009.98 27.0667C1010 27.2961 1011.44 37.3528 1011.44 37.3528C1014.85 37.3528 1016.69 35.197 1017.68 32.8399L1022.46 21.0909C1019.09 21.0909 1017.32 23.3907 1016.41 25.8417ZM1048.32 20.7127C1046.22 20.7127 1044.61 21.851 1043.25 23.5334L1043.25 23.5212L1044.46 13.75C1041.67 13.75 1039.39 16.1779 1038.96 19.7794L1036.84 37.2259C1038.45 37.2259 1040.15 36.7586 1041.07 35.5764C1041.9 36.6341 1043.12 37.4772 1044.93 37.4772C1049.63 37.4772 1052.87 32.0103 1052.87 26.8776C1052.87 22.1939 1050.59 20.7127 1048.32 20.7127ZM1047.89 29.0944C1047.4 31.9639 1045.8 33.8988 1044.26 33.8988C1042.7 33.8988 1042.05 33.2108 1042.05 33.2108C1042.34 30.7024 1042.53 29.1639 1043.1 27.839C1043.66 26.514 1045 24.3997 1046.4 24.3997C1047.76 24.3997 1048.37 26.2261 1047.89 29.0944ZM1064.66 21.0922H1061.36L1061.38 20.9201C1061.6 18.7704 1062.12 17.6419 1063.79 17.4687C1064.92 17.3516 1065.44 16.7598 1065.56 16.1205C1065.65 15.6191 1065.97 13.8464 1065.97 13.8464C1059.37 13.8086 1057.3 16.6598 1056.77 20.9934L1056.76 21.0909L1056.69 21.0934C1055.62 21.0934 1054.44 22.3074 1054.23 23.8494L1054.16 24.4167H1056.36L1054.52 39.6782L1053.96 42.4208L1054.18 42.4281C1057.27 42.311 1059.25 39.8795 1059.69 36.3389L1061.13 24.4167H1062.16C1063.17 24.4167 1064.36 23.4042 1064.58 21.7119L1064.66 21.0922ZM1081.75 20.8092C1077.95 20.8092 1074.38 23.6018 1073.28 27.9951C1072.18 32.3873 1073.85 37.5736 1079.42 37.5736C1085 37.5736 1088.21 32.1676 1088.21 27.6792C1088.21 23.1882 1085.17 20.8092 1081.75 20.8092ZM1083.28 28.9638C1083.09 30.9561 1082.21 33.966 1079.81 33.966C1077.4 33.966 1077.74 30.434 1077.97 28.7577C1078.22 26.9605 1079.23 24.4167 1081.38 24.4167C1083.32 24.4167 1083.51 26.714 1083.28 28.9638ZM1106.94 25.8417C1106.94 25.8417 1105.04 31.8175 1104.89 32.3189C1104.84 31.8175 1103.44 21.0837 1103.44 21.0837C1100.2 21.0837 1098.46 23.3895 1097.55 25.8393C1097.55 25.8393 1095.23 31.8321 1095.04 32.3336C1095.03 31.8638 1094.69 25.9016 1094.69 25.9016C1094.49 22.9051 1091.75 21.0909 1089.54 21.0909L1092.2 37.3528C1095.61 37.3418 1097.43 35.0396 1098.39 32.5947C1098.39 32.5947 1100.43 27.307 1100.52 27.0667C1100.54 27.2961 1101.98 37.3528 1101.98 37.3528C1105.39 37.3528 1107.23 35.197 1108.22 32.8399L1113 21.0909C1109.63 21.0909 1107.86 23.3907 1106.94 25.8417ZM1067.76 13.8464L1064.99 36.1437L1064.98 36.1401L1064.42 38.8974L1064.65 38.9046C1067.63 38.868 1069.74 36.256 1070.14 32.9618L1071.73 20.1637C1072.22 16.2657 1069.89 13.8464 1067.76 13.8464Z" fill="black"/>
<path d="M1259.61 37.0475H1263.77V29.9184H1265.58L1270 37.0475H1274.44L1269.56 29.1952C1271.73 28.5495 1273.36 27.0771 1273.36 24.2875V24.1842C1273.36 20.3614 1270.59 18.5791 1266.23 18.5791H1259.61V37.0475ZM1263.77 27.0771V21.782H1266.12C1268.14 21.782 1269.28 22.4278 1269.28 24.3133V24.4167C1269.28 26.199 1268.22 27.0771 1266.12 27.0771H1263.77Z" fill="black"/>
<path d="M1281.58 37.3316C1285.27 37.3316 1287.6 35.7044 1288.04 32.7855H1284.5C1284.27 33.9221 1283.41 34.6712 1281.68 34.6712C1279.64 34.6712 1278.43 33.3797 1278.32 31.1325H1288.06V30.0993C1288.06 25.269 1284.96 23.2285 1281.48 23.2285C1277.55 23.2285 1274.53 25.9923 1274.53 30.2542V30.4608C1274.53 34.7745 1277.5 37.3316 1281.58 37.3316ZM1278.38 28.8336C1278.66 26.9222 1279.8 25.8115 1281.48 25.8115C1283.26 25.8115 1284.29 26.793 1284.42 28.8336H1278.38Z" fill="black"/>
<path d="M1289.84 37.0475H1293.56V17.4167H1289.84V37.0475Z" fill="black"/>
<path d="M1300.7 37.3316C1302.92 37.3316 1304.29 36.2984 1304.99 34.9295V37.0475H1308.71V23.5385H1304.99V31.4682C1304.99 33.4572 1303.75 34.4387 1302.17 34.4387C1300.57 34.4387 1299.82 33.5604 1299.82 31.7265V23.5385H1296.1V32.2431C1296.1 35.7818 1298.06 37.3316 1300.7 37.3316Z" fill="black"/>
<path d="M1311.24 37.0475H1314.99V29.0661C1314.99 27.2322 1316.15 26.3022 1317.6 26.3022C1318.92 26.3022 1319.72 27.0771 1319.72 28.8078V37.0475H1323.44V29.0661C1323.44 27.2322 1324.6 26.3022 1326.05 26.3022C1327.39 26.3022 1328.16 27.0771 1328.16 28.8078V37.0475H1331.88V28.3945C1331.88 24.8041 1329.95 23.2285 1327.44 23.2285C1325.74 23.2285 1323.98 23.9517 1322.89 25.579C1322.25 23.9776 1320.91 23.2285 1319.12 23.2285C1317.11 23.2285 1315.66 24.3392 1314.99 25.6048V23.5384H1311.24V37.0475Z" fill="black"/>
<path d="M1340.53 37.3316C1344.23 37.3316 1346.55 35.7044 1346.99 32.7855H1343.45C1343.22 33.9221 1342.37 34.6712 1340.63 34.6712C1338.59 34.6712 1337.38 33.3797 1337.28 31.1325H1347.02V30.0993C1347.02 25.269 1343.92 23.2285 1340.43 23.2285C1336.5 23.2285 1333.48 25.9923 1333.48 30.2542V30.4608C1333.48 34.7745 1336.45 37.3316 1340.53 37.3316ZM1337.33 28.8336C1337.61 26.9222 1338.75 25.8115 1340.43 25.8115C1342.21 25.8115 1343.24 26.793 1343.37 28.8336H1337.33Z" fill="black"/>
<path fill-rule="evenodd" clip-rule="evenodd" d="M1245.3 19.684L1245.05 19.2356C1244.73 18.6932 1244.27 18.2425 1243.72 17.9261L1231.69 10.9843C1231.14 10.6682 1230.52 10.5011 1229.89 10.5H1229.37C1228.74 10.5011 1228.13 10.6682 1227.58 10.9843L1215.54 17.9441C1215 18.2584 1214.55 18.7099 1214.24 19.2535L1213.98 19.7019C1213.67 20.2469 1213.5 20.8656 1213.5 21.4956V35.3972C1213.5 36.0273 1213.67 36.6459 1213.98 37.1909L1214.24 37.6393C1214.56 38.1766 1215.01 38.6263 1215.54 38.9488L1227.6 45.8905C1228.14 46.2132 1228.76 46.3808 1229.39 46.3748H1229.89C1230.52 46.3737 1231.14 46.2066 1231.69 45.8905L1243.72 38.9309C1244.27 38.6236 1244.73 38.1704 1245.03 37.6214L1245.3 37.173C1245.62 36.6264 1245.78 36.0087 1245.79 35.3792V21.4777C1245.79 20.8477 1245.62 20.229 1245.3 19.684ZM1229.37 14.0874H1229.89L1240.41 20.1503L1229.64 26.3566L1218.88 20.1503L1229.37 14.0874ZM1231.44 41.8906L1241.93 35.8277L1242.2 35.3793V23.2536L1231.44 29.4779V41.8906Z" fill="black"/>
<path d="M699.804 100.954C699.804 98.9064 697.819 96.7347 694.377 96.7347C690.511 96.7347 686.27 99.5652 685.613 105.221C684.951 110.94 688.511 113.466 692.088 113.466C695.664 113.466 697.547 112.073 699.458 110.205C697.808 108.126 695.679 109.094 695.276 109.296C694.831 109.519 694.246 109.828 693.059 109.828C691.673 109.828 690.268 109.201 690.268 106.628C699.128 105.779 699.804 103.002 699.804 100.954ZM695.413 101.296C695.355 101.927 695.097 103.019 690.613 103.619C691.559 100.262 693.362 100.013 694.195 100.013C694.976 100.013 695.474 100.618 695.413 101.296ZM680.406 101.842C680.406 101.842 678.501 107.817 678.353 108.319C678.302 107.817 676.907 97.0837 676.907 97.0837C673.662 97.0837 671.926 99.3895 671.011 101.839C671.011 101.839 668.693 107.832 668.505 108.334C668.494 107.864 668.149 101.902 668.149 101.902C667.952 98.9051 665.217 97.0909 663 97.0909L665.666 113.353C669.071 113.342 670.894 111.04 671.855 108.595C671.855 108.595 673.894 103.307 673.978 103.067C673.999 103.296 675.444 113.353 675.444 113.353C678.852 113.353 680.69 111.197 681.68 108.84L686.461 97.0909C683.094 97.0909 681.321 99.3907 680.406 101.842ZM712.319 96.7127C710.224 96.7127 708.61 97.851 707.251 99.5334L707.253 99.5212L708.461 89.75C705.672 89.75 703.393 92.1779 702.96 95.7794L700.838 113.226C702.447 113.226 704.152 112.759 705.072 111.576C705.895 112.634 707.119 113.477 708.931 113.477C713.634 113.477 716.867 108.01 716.867 102.878C716.867 98.1939 714.588 96.7127 712.319 96.7127ZM711.887 105.094C711.399 107.964 709.804 109.899 708.26 109.899C706.703 109.899 706.045 109.211 706.045 109.211C706.336 106.702 706.528 105.164 707.096 103.839C707.662 102.514 709 100.4 710.401 100.4C711.762 100.4 712.375 102.226 711.887 105.094ZM728.657 97.0922H725.365L725.38 96.9201C725.605 94.7704 726.12 93.6419 727.786 93.4687C728.925 93.3516 729.439 92.7598 729.559 92.1205C729.653 91.6191 729.971 89.8464 729.971 89.8464C723.366 89.8086 721.296 92.6598 720.767 96.9934L720.755 97.0909L720.691 97.0934C719.618 97.0934 718.441 98.3074 718.235 99.8494L718.163 100.417H720.359L718.515 115.678L717.956 118.421L718.183 118.428C721.266 118.311 723.25 115.879 723.688 112.339L725.128 100.417H726.16C727.17 100.417 728.357 99.4042 728.577 97.7119L728.657 97.0922ZM745.745 96.8092C741.951 96.8092 738.375 99.6018 737.275 103.995C736.177 108.387 737.847 113.574 743.423 113.574C749.002 113.574 752.206 108.168 752.206 103.679C752.206 99.1882 749.171 96.8092 745.745 96.8092ZM747.284 104.964C747.087 106.956 746.209 109.966 743.808 109.966C741.397 109.966 741.739 106.434 741.973 104.758C742.223 102.961 743.233 100.417 745.382 100.417C747.323 100.417 747.506 102.714 747.284 104.964ZM770.944 101.842C770.944 101.842 769.038 107.817 768.892 108.319C768.839 107.817 767.445 97.0837 767.445 97.0837C764.2 97.0837 762.464 99.3895 761.548 101.839C761.548 101.839 759.232 107.832 759.044 108.334C759.032 107.864 758.687 101.902 758.687 101.902C758.491 98.9051 755.754 97.0909 753.538 97.0909L756.203 113.353C759.608 113.342 761.432 111.04 762.394 108.595C762.394 108.595 764.432 103.307 764.516 103.067C764.537 103.296 765.982 113.353 765.982 113.353C769.39 113.353 771.228 111.197 772.217 108.84L777 97.0909C773.632 97.0909 771.859 99.3907 770.944 101.842ZM731.756 89.8464L728.992 112.144L728.984 112.14L728.423 114.897L728.649 114.905C731.626 114.868 733.738 112.256 734.135 108.962L735.732 96.1637C736.216 92.2657 733.893 89.8464 731.756 89.8464Z" fill="black"/>
</svg>
