<svg width="32" height="32" viewBox="0 0 32 32" fill="none" xmlns="http://www.w3.org/2000/svg">
<path d="M26.6665 5.00977H5.33317C3.8625 5.00977 2.6665 6.20577 2.6665 7.67643V23.6764C2.6665 25.1471 3.8625 26.3431 5.33317 26.3431H26.6665C28.1372 26.3431 29.3332 25.1471 29.3332 23.6764V7.67643C29.3332 6.20577 28.1372 5.00977 26.6665 5.00977ZM26.6665 7.67643V8.35777L15.9998 16.6551L5.33317 8.3591V7.67643H26.6665ZM5.33317 23.6764V11.7351L15.1812 19.3951C15.4146 19.5785 15.7029 19.6782 15.9998 19.6782C16.2967 19.6782 16.585 19.5785 16.8185 19.3951L26.6665 11.7351L26.6692 23.6764H5.33317Z" fill="black"/>
</svg>
