<svg width="32" height="32" viewBox="0 0 32 32" fill="none" xmlns="http://www.w3.org/2000/svg">
<path d="M16.0002 18.3431C18.9416 18.3431 21.3336 15.9511 21.3336 13.0098C21.3336 10.0685 18.9416 7.67647 16.0002 7.67647C13.0589 7.67647 10.6669 10.0685 10.6669 13.0098C10.6669 15.9511 13.0589 18.3431 16.0002 18.3431ZM16.0002 10.3431C17.4709 10.3431 18.6669 11.5391 18.6669 13.0098C18.6669 14.4805 17.4709 15.6765 16.0002 15.6765C14.5296 15.6765 13.3336 14.4805 13.3336 13.0098C13.3336 11.5391 14.5296 10.3431 16.0002 10.3431Z" fill="black"/>
<path d="M15.2269 28.7618C15.4526 28.923 15.723 29.0096 16.0003 29.0096C16.2776 29.0096 16.5479 28.923 16.7736 28.7618C17.1789 28.4751 26.7056 21.5965 26.6669 13.0098C26.6669 7.12847 21.8816 2.34314 16.0003 2.34314C10.1189 2.34314 5.33361 7.12847 5.33361 13.0031C5.29495 21.5965 14.8216 28.4751 15.2269 28.7618ZM16.0003 5.00981C20.4123 5.00981 24.0003 8.59781 24.0003 13.0165C24.0283 18.9338 18.1496 24.2471 16.0003 25.9898C13.8523 24.2458 7.97228 18.9311 8.00028 13.0098C8.00028 8.59781 11.5883 5.00981 16.0003 5.00981Z" fill="black"/>
</svg>
